<?xml version="1.0" standalone="no"?>
<!DOCTYPE svg PUBLIC "-//W3C//DTD SVG 20010904//EN"
 "http://www.w3.org/TR/2001/REC-SVG-20010904/DTD/svg10.dtd">
<svg version="1.0" xmlns="http://www.w3.org/2000/svg"
 width="873.000000pt" height="834.000000pt" viewBox="0 0 873.000000 834.000000"
 preserveAspectRatio="xMidYMid meet">
<metadata>
Created by potrace 1.10, written by Peter Selinger 2001-2011
</metadata>
<g transform="translate(0.000000,834.000000) scale(0.100000,-0.100000)"
fill="#000000" stroke="none">
<path d="M655 7928 c-3 -7 -4 -371 -3 -808 l3 -795 805 0 805 0 0 805 0 805
-803 3 c-637 2 -804 0 -807 -10z m1370 -798 l0 -565 -565 0 -565 0 -3 555 c-1
305 0 561 3 568 3 10 122 12 567 10 l563 -3 0 -565z"/>
<path d="M1105 7478 c-3 -7 -4 -162 -3 -343 l3 -330 340 0 340 0 0 340 0 340
-338 3 c-266 2 -339 0 -342 -10z"/>
<path d="M3417 7933 c-4 -3 -7 -57 -7 -119 l0 -113 118 -3 117 -3 3 -222 2
-222 -117 -3 -118 -3 -3 -117 -3 -118 -104 0 -105 0 -2 238 -3 237 -340 0
-340 0 0 -700 0 -700 103 -3 102 -3 0 -104 0 -105 -225 0 -224 0 -3 103 -3
102 -580 0 -580 0 -3 -102 -3 -103 -104 0 -105 0 0 105 0 105 -120 0 -121 0 3
-102 3 -103 117 -3 118 -3 0 -119 0 -120 -120 0 -121 0 3 -117 3 -118 117 -3
118 -3 0 120 0 120 102 3 103 3 3 118 3 118 117 -3 117 -3 3 -237 2 -237 -117
-3 -118 -3 -3 -222 -2 -223 -223 -2 -222 -3 0 -340 0 -340 115 0 115 0 5 115
5 115 100 0 100 0 5 -115 5 -115 115 0 115 0 3 223 2 222 120 0 120 0 2 -342
3 -343 102 -3 102 -3 3 -117 3 -117 117 -3 117 -3 3 -102 3 -102 115 -5 115
-5 3 -117 3 -117 -118 -3 -118 -3 0 -115 0 -115 118 -3 118 -3 -3 -102 -3
-102 -115 -5 -115 -5 0 -115 0 -115 115 -5 115 -5 3 -118 3 -117 -238 2 -238
3 -5 235 -5 235 -102 3 -102 3 -3 -118 -3 -118 -118 -3 -118 -3 3 -117 3 -117
115 -5 115 -5 5 -100 5 -100 340 0 340 0 3 103 3 102 119 0 120 0 2 -223 3
-222 103 -3 103 -3 -3 -117 -3 -117 -100 -5 -100 -5 0 -460 0 -460 103 -3 102
-3 0 -104 0 -104 -102 -3 -103 -3 0 -115 0 -115 100 0 100 0 3 118 3 118 117
-3 117 -3 5 -115 5 -115 115 0 115 0 5 115 5 115 100 5 100 5 0 100 0 100
-100 5 -100 5 -3 117 -3 117 103 3 103 3 5 220 5 220 115 0 115 0 5 -220 5
-220 460 -5 460 -5 0 -115 0 -115 -118 -3 -117 -3 2 -222 3 -222 235 0 235 0
5 115 5 115 100 0 100 0 5 -115 5 -115 115 0 115 0 5 115 5 115 117 3 117 3 3
-118 3 -118 100 0 100 0 3 118 3 118 117 -3 117 -3 5 -115 5 -115 220 0 220 0
5 115 5 115 115 5 115 5 3 103 3 103 117 -3 117 -3 5 -220 5 -220 565 0 565 0
0 115 0 115 -220 5 -220 5 -5 100 -5 100 -220 5 -220 5 0 115 0 115 340 5 340
5 0 115 0 115 -115 5 -115 5 -3 103 -3 102 120 0 120 0 3 118 3 117 100 0 100
0 5 -115 5 -115 115 0 115 0 0 235 0 235 -115 5 -115 5 0 115 0 115 115 5 115
5 0 220 0 220 -117 3 -118 3 0 119 0 119 118 3 117 3 0 220 0 220 -223 3 -223
2 3 118 3 117 100 5 100 5 0 100 0 100 -100 5 -100 5 -5 115 -5 115 -237 3
-238 2 0 120 0 120 238 2 237 3 5 115 5 115 100 5 100 5 5 100 5 100 115 5
115 5 0 340 0 340 -117 3 -118 3 0 119 0 119 118 3 117 3 0 115 0 115 -115 0
-115 0 -3 -118 -3 -118 -102 3 -102 3 -3 223 -2 222 -585 0 -584 0 -3 -102 -3
-103 -115 0 -115 0 -3 102 -3 102 -102 3 -102 3 -3 117 -3 117 103 3 103 3 3
238 2 237 -225 0 -226 0 3 103 3 102 118 3 117 3 0 240 0 240 -117 -3 -118 -3
-5 -115 -5 -115 -462 -3 -462 -2 -3 117 -3 118 -100 5 -100 5 -5 220 -5 220
-696 3 c-382 1 -699 -1 -702 -5z m1158 -338 l0 -100 -237 -3 -237 -2 -3 -118
-3 -117 -102 -3 -103 -3 0 -119 0 -119 103 -3 102 -3 0 -100 0 -100 -100 0
-100 0 -3 103 -3 102 -119 0 -120 0 0 -225 0 -224 118 -3 117 -3 3 -117 3
-118 104 0 104 0 3 118 3 117 115 0 115 0 3 -118 3 -118 117 3 117 3 3 237 2
237 -117 3 -118 3 0 100 0 100 115 5 115 5 5 115 5 115 223 3 222 2 0 -120 0
-120 343 -2 342 -3 5 -100 5 -100 118 -3 117 -3 0 -119 0 -119 118 -3 117 -3
3 -118 3 -118 -118 3 -118 3 -3 118 -3 117 -119 0 -119 0 -3 -117 -3 -118
-102 -3 -103 -3 0 -224 0 -225 105 0 104 0 3 103 3 102 115 0 115 0 0 -100 0
-100 -117 -3 -117 -3 -3 -117 -3 -117 -102 -3 -103 -3 -2 -342 -3 -342 -117
-3 -118 -3 0 -119 0 -119 118 -3 117 -3 0 -100 0 -100 -115 0 -115 0 -3 103
-3 103 -117 -3 -117 -3 -5 -100 -5 -100 -100 0 -100 0 -3 223 -2 222 -583 -2
-582 -3 -5 -220 -5 -220 -118 -3 -118 -3 3 -117 3 -117 115 -5 115 -5 0 -235
0 -235 -115 -5 -115 -5 -5 -220 -5 -220 -100 -5 -100 -5 -5 -115 -5 -115 -115
0 -115 0 0 235 0 235 115 5 115 5 0 100 0 100 -237 3 -238 2 -2 -342 -3 -343
-222 -3 -223 -2 0 119 0 120 118 3 117 3 5 220 5 220 103 3 103 3 -3 117 -3
117 -100 5 -100 5 -5 235 -5 235 -117 3 -117 3 -3 -118 -3 -118 -115 -5 -115
-5 -3 -117 -3 -117 118 -3 118 -3 0 -115 0 -115 -117 -3 -118 -3 0 121 0 120
-120 0 -120 0 0 345 0 345 -105 0 -105 0 0 120 0 120 -120 0 -120 0 0 -120 0
-121 -117 3 -118 3 -3 118 -3 117 121 0 120 0 0 225 0 224 117 3 118 3 5 115
5 115 222 3 222 2 3 118 3 117 118 3 118 3 -3 -118 -3 -118 -118 -3 -118 -3 3
-117 3 -117 115 -5 115 -5 3 -103 3 -103 117 3 117 3 5 220 5 220 103 3 102 3
0 119 0 120 120 0 120 0 0 105 0 105 -120 0 -120 0 2 238 3 237 115 0 115 0 3
-237 2 -237 118 -3 117 -3 5 -220 5 -220 102 -3 102 -3 3 118 3 118 115 5 115
5 3 102 3 102 -118 3 -118 3 -3 117 -3 117 -102 3 -102 3 0 115 0 115 103 3
102 3 0 224 0 225 120 0 120 0 0 120 0 120 120 0 119 0 3 118 3 117 103 3 102
3 0 98 c0 54 3 101 7 105 4 3 110 5 237 4 l231 -3 0 -100z m-1615 -465 l5
-115 118 -3 118 -3 -3 -102 -3 -102 -235 0 -235 0 -3 210 c-1 115 0 215 3 223
3 10 32 12 117 10 l113 -3 5 -115z m4378 -1382 l3 -117 117 -3 117 -3 0 -115
0 -115 -115 0 -115 0 -3 118 -3 117 -105 0 -104 0 2 -222 3 -223 100 -5 100
-5 0 -115 0 -115 -100 -5 -100 -5 -3 -117 -3 -118 223 -2 223 -3 0 -100 0
-100 -115 -5 -115 -5 -3 -117 -3 -118 -224 0 -224 0 -3 -117 -3 -118 -117 -3
-118 -3 -2 -342 -3 -342 -115 -5 -115 -5 0 -115 0 -115 115 -5 115 -5 3 -102
3 -103 119 0 119 0 3 103 3 102 115 0 115 0 0 -100 0 -100 -117 -3 -118 -3 0
-119 0 -119 118 -3 117 -3 0 -115 0 -115 -235 0 -235 0 -3 117 -3 117 -117 3
-117 3 -3 118 -3 117 -567 -2 -567 -3 0 -115 0 -115 340 -5 340 -5 3 -222 2
-222 118 -3 117 -3 0 -115 0 -115 -115 -5 -115 -5 -5 -115 -5 -115 -115 0
-115 0 -3 343 -2 342 -223 -2 -222 -3 0 -100 0 -100 115 -5 115 -5 3 -462 2
-463 105 0 104 0 3 103 3 102 235 0 235 0 5 -100 5 -100 340 -5 340 -5 0 -115
0 -115 -115 -5 -115 -5 -3 -118 -3 -117 -222 2 -222 3 -3 117 -3 117 -117 3
-117 3 -3 117 -3 118 -119 0 -119 0 -3 -117 -3 -118 -102 -3 -103 -3 0 -119 0
-119 103 -3 102 -3 3 -102 3 -103 -106 0 -105 0 0 105 0 104 -117 3 -118 3 -3
117 -3 118 -222 2 -222 3 -3 117 -3 118 -237 2 -237 3 -5 220 -5 220 -117 3
-118 3 -2 -223 -3 -223 -100 0 -100 0 0 220 0 220 103 3 102 3 0 240 0 240
-102 -3 -103 -3 -5 -115 -5 -115 -115 -5 -115 -5 -5 -115 -5 -115 -340 0 -340
0 -3 117 -3 118 -119 0 -120 0 0 225 0 225 -105 0 -106 0 3 118 3 117 100 0
100 0 3 -118 3 -117 119 0 120 0 2 238 3 237 115 0 115 0 5 -115 5 -115 100
-5 100 -5 3 -222 2 -223 120 0 119 0 3 102 3 103 220 0 220 0 3 -102 3 -103
119 0 120 0 2 222 3 223 118 3 117 3 0 119 0 119 -117 3 -118 3 -3 103 -3 103
-117 -3 -117 -3 -5 -100 -5 -100 -100 0 -100 0 -3 222 -2 222 -118 3 -117 3 0
115 0 115 115 0 115 0 3 -117 3 -118 224 0 225 0 0 225 0 225 -222 2 -223 3 0
115 0 115 100 5 100 5 0 115 0 115 -100 5 -100 5 0 220 0 220 340 0 340 0 0
-100 0 -100 -115 -5 -115 -5 -3 -357 -2 -357 117 -3 118 -3 3 -222 2 -223 226
0 225 0 -3 118 -3 117 -100 5 -100 5 0 100 0 100 100 5 100 5 3 117 3 117
-103 3 -103 3 0 115 0 115 100 0 100 0 3 -117 3 -118 119 0 119 0 3 118 3 117
220 5 220 5 5 565 5 565 117 3 117 3 3 117 3 117 220 0 220 0 5 -115 5 -115
238 -3 237 -2 0 233 c0 129 3 237 7 241 4 3 104 5 222 4 l216 -3 3 -117z m690
-580 l-3 -223 -220 0 -220 0 0 115 0 115 115 5 115 5 3 90 c1 50 4 96 7 103 3
8 34 12 105 12 l100 0 -2 -222z m-688 -1278 l0 -119 118 -3 117 -3 0 -100 0
-100 -115 0 -115 0 -3 103 -3 102 -104 0 -105 0 -2 -222 -3 -223 -115 0 -115
0 0 220 0 220 118 3 117 3 0 113 c0 62 3 116 7 119 3 4 51 7 105 7 l98 0 0
-120z m480 -690 l0 -119 103 -3 102 -3 3 -103 3 -103 -103 3 -103 3 -3 103 -3
102 -119 0 -120 0 0 -225 0 -225 225 0 226 0 -3 -117 -3 -118 -222 -3 -223 -2
0 -466 0 -465 -117 3 -118 3 0 460 0 460 118 3 117 3 0 119 0 119 -117 3 -118
3 0 220 0 220 118 3 117 3 0 113 c0 62 3 116 7 119 3 4 57 7 120 7 l113 0 0
-120z m-695 -1380 l0 -355 -355 0 -355 0 -3 345 c-1 190 0 351 3 358 3 10 80
12 357 10 l353 -3 0 -355z m-4165 -465 l5 -100 115 -5 115 -5 3 -117 3 -117
-118 -3 -118 -3 -5 -115 -5 -115 -117 -3 -118 -3 0 339 c0 186 3 342 7 346 4
3 57 5 117 4 l111 -3 5 -100z"/>
<path d="M4820 6545 l0 -465 -237 2 -238 3 -3 118 -3 117 -119 0 -119 0 -3
-117 -3 -118 -102 -3 -103 -3 0 121 0 120 -120 0 -120 0 0 120 0 120 -120 0
-120 0 0 -120 0 -120 120 0 120 0 0 -120 0 -120 120 0 120 0 0 -225 0 -225
343 2 342 3 5 115 5 115 118 3 117 3 0 104 0 105 105 0 105 0 0 465 0 465
-105 0 -105 0 0 -465z"/>
<path d="M5275 6788 c-3 -8 -4 -115 -3 -238 l3 -225 118 -3 117 -3 -2 238 -3
238 -113 3 c-85 2 -114 0 -117 -10z"/>
<path d="M5277 5863 c-4 -3 -7 -57 -7 -119 l0 -114 -222 -2 -223 -3 -3 -117
-3 -117 103 -3 103 -3 0 -100 0 -100 -100 -5 -100 -5 -3 -117 -3 -118 226 0
225 0 0 345 0 345 120 0 120 0 0 120 0 120 -113 0 c-63 0 -117 -3 -120 -7z"/>
<path d="M3408 5513 l-3 -118 -100 -5 -100 -5 -3 -102 -3 -103 -119 0 -119 0
-3 103 -3 102 -115 0 -115 0 0 -100 0 -100 117 -3 118 -3 2 -237 3 -237 118
-3 117 -3 0 -104 0 -104 -117 -3 -118 -3 0 -235 0 -235 115 0 115 0 3 238 2
237 106 0 105 0 -3 103 -3 102 -102 3 -103 3 0 239 0 240 223 2 222 3 3 223 2
222 -119 0 -120 0 -3 -117z"/>
<path d="M3894 5377 c-2 -7 -4 -54 -2 -103 l3 -89 100 0 100 0 0 100 0 100
-98 3 c-75 2 -99 0 -103 -11z"/>
<path d="M1587 5173 c-4 -3 -7 -57 -7 -119 l0 -113 103 -3 102 -3 3 -117 3
-118 119 0 119 0 3 -102 3 -103 118 -3 117 -3 0 105 0 106 223 2 222 3 0 115
0 115 -222 3 -223 2 0 120 0 120 -338 0 c-186 0 -342 -3 -345 -7z m683 -353
l0 -120 -120 0 -120 0 0 113 c0 63 3 117 7 120 3 4 57 7 120 7 l113 0 0 -120z"/>
<path d="M6414 5167 c-2 -7 -3 -60 -2 -118 l3 -104 235 0 235 0 0 115 0 115
-233 3 c-187 2 -233 0 -238 -11z"/>
<path d="M5964 4687 c-3 -8 -4 -54 -2 -103 l3 -89 220 -5 220 -5 0 -115 0
-115 -100 -5 -100 -5 -3 -117 -3 -117 -117 -3 -117 -3 -3 -117 -3 -117 -117
-3 -117 -3 -3 -103 -3 -103 118 3 118 3 3 102 3 102 117 3 117 3 3 118 3 117
224 0 224 0 3 118 3 117 118 3 117 3 0 119 0 119 118 3 117 3 3 103 3 103
-118 -3 -118 -3 -3 -103 -3 -103 -117 3 -117 3 -5 100 -5 100 -338 3 c-275 2
-338 0 -343 -11z"/>
<path d="M5272 3893 l3 -118 115 0 115 0 0 115 0 115 -118 3 -118 3 3 -118z"/>
<path d="M4340 3200 l0 -120 120 0 120 0 0 -105 0 -104 118 -3 117 -3 0 -115
0 -115 -118 -3 -118 -3 3 -117 3 -117 220 0 220 0 3 342 2 343 583 2 582 3 0
115 0 115 -582 3 -583 2 0 -120 0 -120 -225 0 -225 0 0 120 0 120 -120 0 -120
0 0 -120z"/>
<path d="M2960 2165 l0 -225 225 0 225 0 0 120 0 119 -102 3 -103 3 -3 103 -3
102 -119 0 -120 0 0 -225z"/>
<path d="M4342 2063 l3 -118 118 -3 118 -3 -3 118 -3 118 -118 3 -118 3 3
-118z"/>
<path d="M4825 2168 c-3 -8 -4 -115 -3 -238 l3 -225 103 -3 103 -3 -3 -117 -3
-117 -100 -5 -100 -5 -3 -102 -3 -103 226 0 225 0 0 -120 0 -120 120 0 120 0
0 120 0 120 -120 0 -120 0 -2 223 -3 222 -117 3 -118 3 -2 237 -3 237 -98 3
c-73 2 -99 -1 -102 -10z"/>
<path d="M6657 1934 c-4 -4 -7 -58 -7 -121 l0 -113 120 0 121 0 -3 118 -3 117
-111 3 c-60 1 -113 -1 -117 -4z"/>
<path d="M5034 7927 c-2 -7 -3 -60 -2 -118 l3 -104 115 0 115 0 0 115 0 115
-113 3 c-87 2 -114 0 -118 -11z"/>
<path d="M5514 7927 c-2 -7 -3 -60 -2 -118 l3 -104 100 0 100 0 0 115 0 115
-98 3 c-75 2 -99 0 -103 -11z"/>
<path d="M5967 7934 c-4 -4 -7 -58 -7 -121 l0 -113 225 0 226 0 -3 118 -3 117
-216 3 c-118 1 -218 -1 -222 -4z"/>
<path d="M6655 7928 c-3 -7 -4 -371 -3 -808 l3 -795 805 0 805 0 0 805 0 805
-803 3 c-637 2 -804 0 -807 -10z m1370 -798 l0 -565 -565 0 -565 0 -3 555 c-1
305 0 561 3 568 3 10 122 12 567 10 l563 -3 0 -565z"/>
<path d="M7135 7478 c-3 -7 -4 -162 -3 -343 l3 -330 340 0 340 0 0 340 0 340
-338 3 c-266 2 -339 0 -342 -10z"/>
<path d="M8034 4237 c-2 -7 -3 -60 -2 -118 l3 -104 115 0 115 0 0 115 0 115
-113 3 c-87 2 -114 0 -118 -11z"/>
<path d="M1105 3758 c-3 -7 -6 -53 -7 -103 l-3 -90 -220 -5 -220 -5 -3 -687
-2 -688 120 0 120 0 2 448 3 447 102 3 102 3 3 -103 3 -103 115 0 115 0 3 102
3 103 222 2 222 3 0 115 0 115 -100 5 -100 5 -5 115 -5 115 -115 5 -115 5 -5
100 -5 100 -113 3 c-84 2 -114 -1 -117 -10z m233 -560 l3 -118 -121 0 -120 0
0 113 c0 63 3 117 7 121 4 3 57 5 117 4 l111 -3 3 -117z"/>
<path d="M655 1928 c-3 -7 -4 -371 -3 -808 l3 -795 805 0 805 0 0 805 0 805
-803 3 c-637 2 -804 0 -807 -10z m1370 -798 l0 -565 -565 0 -565 0 -3 555 c-1
305 0 561 3 568 3 10 122 12 567 10 l563 -3 0 -565z"/>
<path d="M1105 1448 c-3 -7 -4 -162 -3 -343 l3 -330 340 0 340 0 0 340 0 340
-338 3 c-266 2 -339 0 -342 -10z"/>
<path d="M3654 757 c-2 -7 -4 -54 -2 -103 l3 -89 115 0 115 0 0 100 0 100
-113 3 c-88 2 -114 0 -118 -11z"/>
</g>
</svg>
